<svg width="40" height="40" viewBox="0 0 40 40" fill="none" xmlns="http://www.w3.org/2000/svg">
<path d="M0 33.3334V28.7084C0 27.764 0.236111 26.889 0.708333 26.0834C1.18056 25.2779 1.83333 24.6667 2.66667 24.2501C3.05556 24.0556 3.43056 23.8751 3.79167 23.7084C4.18056 23.5417 4.58333 23.389 5 23.2501V33.3334H0ZM6.66667 21.6667C5.27778 21.6667 4.09722 21.1806 3.125 20.2084C2.15278 19.2362 1.66667 18.0556 1.66667 16.6667C1.66667 15.2779 2.15278 14.0973 3.125 13.1251C4.09722 12.1529 5.27778 11.6667 6.66667 11.6667C8.05556 11.6667 9.23611 12.1529 10.2083 13.1251C11.1806 14.0973 11.6667 15.2779 11.6667 16.6667C11.6667 18.0556 11.1806 19.2362 10.2083 20.2084C9.23611 21.1806 8.05556 21.6667 6.66667 21.6667ZM6.66667 18.3334C7.13889 18.3334 7.52778 18.1806 7.83333 17.8751C8.16667 17.5417 8.33333 17.139 8.33333 16.6667C8.33333 16.1945 8.16667 15.8056 7.83333 15.5001C7.52778 15.1667 7.13889 15.0001 6.66667 15.0001C6.19444 15.0001 5.79167 15.1667 5.45833 15.5001C5.15278 15.8056 5 16.1945 5 16.6667C5 17.139 5.15278 17.5417 5.45833 17.8751C5.79167 18.1806 6.19444 18.3334 6.66667 18.3334ZM6.66667 33.3334V28.6667C6.66667 27.7223 6.90278 26.8612 7.375 26.0834C7.875 25.2779 8.52778 24.6667 9.33333 24.2501C11.0556 23.389 12.8056 22.7501 14.5833 22.3334C16.3611 21.889 18.1667 21.6667 20 21.6667C21.8333 21.6667 23.6389 21.889 25.4167 22.3334C27.1944 22.7501 28.9444 23.389 30.6667 24.2501C31.4722 24.6667 32.1111 25.2779 32.5833 26.0834C33.0833 26.8612 33.3333 27.7223 33.3333 28.6667V33.3334H6.66667ZM10 30.0001H30V28.6667C30 28.3612 29.9167 28.0834 29.75 27.8334C29.6111 27.5834 29.4167 27.389 29.1667 27.2501C27.6667 26.5001 26.1528 25.9445 24.625 25.5834C23.0972 25.1945 21.5556 25.0001 20 25.0001C18.4444 25.0001 16.9028 25.1945 15.375 25.5834C13.8472 25.9445 12.3333 26.5001 10.8333 27.2501C10.5833 27.389 10.375 27.5834 10.2083 27.8334C10.0694 28.0834 10 28.3612 10 28.6667V30.0001ZM20 20.0001C18.1667 20.0001 16.5972 19.3473 15.2917 18.0417C13.9861 16.7362 13.3333 15.1667 13.3333 13.3334C13.3333 11.5001 13.9861 9.93064 15.2917 8.62508C16.5972 7.31953 18.1667 6.66675 20 6.66675C21.8333 6.66675 23.4028 7.31953 24.7083 8.62508C26.0139 9.93064 26.6667 11.5001 26.6667 13.3334C26.6667 15.1667 26.0139 16.7362 24.7083 18.0417C23.4028 19.3473 21.8333 20.0001 20 20.0001ZM20 16.6667C20.9167 16.6667 21.6944 16.3473 22.3333 15.7084C23 15.0417 23.3333 14.2501 23.3333 13.3334C23.3333 12.4167 23 11.639 22.3333 11.0001C21.6944 10.3334 20.9167 10.0001 20 10.0001C19.0833 10.0001 18.2917 10.3334 17.625 11.0001C16.9861 11.639 16.6667 12.4167 16.6667 13.3334C16.6667 14.2501 16.9861 15.0417 17.625 15.7084C18.2917 16.3473 19.0833 16.6667 20 16.6667ZM33.3333 21.6667C31.9444 21.6667 30.7639 21.1806 29.7917 20.2084C28.8194 19.2362 28.3333 18.0556 28.3333 16.6667C28.3333 15.2779 28.8194 14.0973 29.7917 13.1251C30.7639 12.1529 31.9444 11.6667 33.3333 11.6667C34.7222 11.6667 35.9028 12.1529 36.875 13.1251C37.8472 14.0973 38.3333 15.2779 38.3333 16.6667C38.3333 18.0556 37.8472 19.2362 36.875 20.2084C35.9028 21.1806 34.7222 21.6667 33.3333 21.6667ZM33.3333 18.3334C33.8056 18.3334 34.1944 18.1806 34.5 17.8751C34.8333 17.5417 35 17.139 35 16.6667C35 16.1945 34.8333 15.8056 34.5 15.5001C34.1944 15.1667 33.8056 15.0001 33.3333 15.0001C32.8611 15.0001 32.4583 15.1667 32.125 15.5001C31.8194 15.8056 31.6667 16.1945 31.6667 16.6667C31.6667 17.139 31.8194 17.5417 32.125 17.8751C32.4583 18.1806 32.8611 18.3334 33.3333 18.3334ZM35 33.3334V23.2501C35.4167 23.389 35.8056 23.5417 36.1667 23.7084C36.5556 23.8751 36.9444 24.0556 37.3333 24.2501C38.1667 24.6667 38.8194 25.2779 39.2917 26.0834C39.7639 26.889 40 27.764 40 28.7084V33.3334H35Z" fill="url(#paint0_linear_344_425)"/>
<defs>
<linearGradient id="paint0_linear_344_425" x1="36.6667" y1="10.4445" x2="8.35245" y2="30.824" gradientUnits="userSpaceOnUse">
<stop offset="0.49708" stop-color="#639FEA"/>
<stop offset="0.5" stop-color="#5CC7F4"/>
</linearGradient>
</defs>
</svg>
